<svg id="Prioritize" xmlns="http://www.w3.org/2000/svg" viewBox="0 0 69.44 71.68"><defs><style>.cls-1{fill:#10b9c1;}</style></defs><path class="cls-1" d="M88,109.89H38.73a1.12,1.12,0,0,1-1.12-1.12V39.33a1.12,1.12,0,0,1,1.12-1.12H79.05a1.13,1.13,0,0,1,.8.32l9,9a1.13,1.13,0,0,1,.32.8v60.48A1.12,1.12,0,0,1,88,109.89Zm-48.16-2.24h47V48.75l-8.3-8.3H39.85Z" transform="translate(-37.61 -38.21)"/><polygon class="cls-1" points="11.2 26.22 7.05 22.07 8.63 20.49 11.2 23.06 14.89 19.37 16.47 20.95 11.2 26.22"/><rect class="cls-1" x="20.16" y="19.04" width="11.2" height="2.24"/><rect class="cls-1" x="20.16" y="23.52" width="17.92" height="2.24"/><polygon class="cls-1" points="11.2 37.42 7.05 33.27 8.63 31.69 11.2 34.26 14.89 30.57 16.47 32.15 11.2 37.42"/><rect class="cls-1" x="20.16" y="30.24" width="24.64" height="2.24"/><rect class="cls-1" x="20.16" y="34.72" width="8.96" height="2.24"/><rect class="cls-1" x="20.16" y="41.44" width="24.64" height="2.24"/><rect class="cls-1" x="20.16" y="45.92" width="13.44" height="2.24"/><rect class="cls-1" x="20.16" y="52.64" width="15.68" height="2.24"/><rect class="cls-1" x="20.16" y="57.12" width="24.64" height="2.24"/><rect class="cls-1" x="62.72" y="6.72" width="2.24" height="51.52"/><rect class="cls-1" x="56" y="6.72" width="2.24" height="51.52"/><path class="cls-1" d="M102.57,46.05h-9V38.21h9Zm-6.72-2.24h4.48V40.45H95.85Z" transform="translate(-37.61 -38.21)"/><path class="cls-1" d="M98.09,109.89a1.13,1.13,0,0,1-1-.55l-3.36-5.6a1.14,1.14,0,0,1-.16-.57V96.45a1.12,1.12,0,0,1,1.12-1.12h6.72a1.12,1.12,0,0,1,1.12,1.12v6.72a1,1,0,0,1-.16.57l-3.36,5.6A1.11,1.11,0,0,1,98.09,109.89Zm-2.24-7,2.24,3.73,2.24-3.73V97.57H95.85Z" transform="translate(-37.61 -38.21)"/><rect class="cls-1" x="57.12" y="39.2" width="6.72" height="2.24"/><polygon class="cls-1" points="69.44 29.12 67.2 29.12 67.2 14.56 63.84 14.56 63.84 12.32 69.44 12.32 69.44 29.12"/><rect class="cls-1" x="57.12" y="43.68" width="6.72" height="2.24"/><rect class="cls-1" x="57.12" y="48.16" width="6.72" height="2.24"/><rect class="cls-1" x="57.12" y="52.64" width="6.72" height="2.24"/><rect class="cls-1" x="31.36" y="34.72" width="13.44" height="2.24"/><rect class="cls-1" x="33.6" y="19.04" width="11.2" height="2.24"/><rect class="cls-1" x="38.08" y="52.64" width="6.72" height="2.24"/><path class="cls-1" d="M88,49.41h-9a1.12,1.12,0,0,1-1.12-1.12v-9h2.24v7.84H88Z" transform="translate(-37.61 -38.21)"/><rect class="cls-1" x="6.72" y="4.48" width="2.24" height="2.24"/><rect class="cls-1" x="11.2" y="4.48" width="2.24" height="2.24"/><rect class="cls-1" x="15.68" y="4.48" width="2.24" height="2.24"/><rect class="cls-1" x="6.72" y="8.96" width="29.12" height="2.24"/><rect class="cls-1" x="44.06" y="81.89" width="9.5" height="2.24" transform="translate(-82.01 20.62) rotate(-45)"/><rect class="cls-1" x="47.69" y="78.25" width="2.24" height="9.5" transform="translate(-82.01 20.62) rotate(-45)"/><rect class="cls-1" x="44.06" y="93.09" width="9.5" height="2.24" transform="translate(-89.93 23.9) rotate(-45)"/><rect class="cls-1" x="47.69" y="89.45" width="2.24" height="9.5" transform="translate(-89.93 23.9) rotate(-45)"/></svg>