<svg id="Design" xmlns="http://www.w3.org/2000/svg" viewBox="0 0 71.68 67.2"><defs><style>.cls-1{fill:#10b9c1;}</style></defs><path class="cls-1" d="M99.21,94.46H36.49V48.54h56v31a9,9,0,1,1,6.72,14.88ZM38.73,92.22H99.21a6.72,6.72,0,1,0-6.72-6.72H90.25V50.78H38.73Z" transform="translate(-36.49 -40.7)"/><path class="cls-1" d="M108.17,85.5h-2.24V49.66a6.72,6.72,0,0,0-13.44,0H90.25a9,9,0,0,1,17.92,0Z" transform="translate(-36.49 -40.7)"/><rect class="cls-1" x="61.6" y="13.44" width="2.24" height="2.24"/><rect class="cls-1" x="61.6" y="17.92" width="2.24" height="2.24"/><rect class="cls-1" x="61.6" y="22.4" width="2.24" height="2.24"/><path class="cls-1" d="M108.17,107.9H36.49V96.7h71.68Zm-69.44-2.24h67.2V98.94H38.73Z" transform="translate(-36.49 -40.7)"/><rect class="cls-1" x="11.2" y="62.72" width="2.24" height="3.36"/><rect class="cls-1" x="15.68" y="62.72" width="2.24" height="3.36"/><rect class="cls-1" x="20.16" y="62.72" width="2.24" height="3.36"/><rect class="cls-1" x="24.64" y="62.72" width="2.24" height="3.36"/><rect class="cls-1" x="29.12" y="62.72" width="2.24" height="3.36"/><rect class="cls-1" x="33.6" y="62.72" width="2.24" height="3.36"/><rect class="cls-1" x="38.08" y="62.72" width="2.24" height="3.36"/><rect class="cls-1" x="42.56" y="62.72" width="2.24" height="3.36"/><rect class="cls-1" x="47.04" y="62.72" width="2.24" height="3.36"/><rect class="cls-1" x="51.52" y="62.72" width="2.24" height="3.36"/><rect class="cls-1" x="56" y="62.72" width="2.24" height="3.36"/><rect class="cls-1" x="60.48" y="62.72" width="2.24" height="3.36"/><rect class="cls-1" x="64.96" y="62.72" width="2.24" height="3.36"/><rect class="cls-1" x="4.48" y="60.48" width="2.24" height="2.24"/><rect class="cls-1" x="5.6" y="13.44" width="4.48" height="2.24"/><rect class="cls-1" x="25.76" y="13.44" width="4.48" height="2.24"/><rect class="cls-1" x="19.04" y="13.44" width="4.48" height="2.24"/><rect class="cls-1" x="32.48" y="13.44" width="4.48" height="2.24"/><rect class="cls-1" x="39.2" y="13.44" width="4.48" height="2.24"/><rect class="cls-1" x="45.92" y="13.44" width="4.48" height="2.24"/><path class="cls-1" d="M86.89,68.7H42.09V58.62h44.8ZM44.33,66.46H84.65v-5.6H44.33Z" transform="translate(-36.49 -40.7)"/><path class="cls-1" d="M55.53,79.9H42.09v-9H55.53Zm-11.2-2.24h9V73.18h-9Z" transform="translate(-36.49 -40.7)"/><path class="cls-1" d="M71.21,79.9H57.77v-9H71.21ZM60,77.66h9V73.18H60Z" transform="translate(-36.49 -40.7)"/><path class="cls-1" d="M86.89,79.9H73.45v-9H86.89Zm-11.2-2.24h9V73.18h-9Z" transform="translate(-36.49 -40.7)"/><rect class="cls-1" x="5.6" y="41.44" width="13.44" height="2.24"/><rect class="cls-1" x="5.6" y="45.92" width="13.44" height="2.24"/><rect class="cls-1" x="21.28" y="41.44" width="13.44" height="2.24"/><rect class="cls-1" x="21.28" y="45.92" width="13.44" height="2.24"/><rect class="cls-1" x="36.96" y="41.44" width="13.44" height="2.24"/><rect class="cls-1" x="36.96" y="45.92" width="13.44" height="2.24"/></svg>