<svg id="Research" xmlns="http://www.w3.org/2000/svg" viewBox="0 0 71.68 71.68"><defs><style>.cls-1{fill:#10b9c1;}</style></defs><path class="cls-1" d="M45.45,62.85H43.21v-19a1.12,1.12,0,0,1,1.12-1.12H57.77v2.24H45.45Z" transform="translate(-36.49 -38.21)"/><path class="cls-1" d="M95.85,109.89H44.33a1.12,1.12,0,0,1-1.12-1.12V78.53h2.24v29.12H94.73V71.81H97v37A1.12,1.12,0,0,1,95.85,109.89Z" transform="translate(-36.49 -38.21)"/><path class="cls-1" d="M97,46.05H94.73V44.93H82.41V42.69H95.85A1.12,1.12,0,0,1,97,43.81Z" transform="translate(-36.49 -38.21)"/><path class="cls-1" d="M82.41,51.65H57.77a1.12,1.12,0,0,1-1.12-1.12V39.33a1.12,1.12,0,0,1,1.12-1.12H82.41a1.12,1.12,0,0,1,1.12,1.12v11.2A1.12,1.12,0,0,1,82.41,51.65ZM58.89,49.41h22.4v-9H58.89Z" transform="translate(-36.49 -38.21)"/><path class="cls-1" d="M52.17,62.85H49.93V48.29a1.12,1.12,0,0,1,1.12-1.12h3.36v2.24H52.17Z" transform="translate(-36.49 -38.21)"/><path class="cls-1" d="M89.13,103.17H51.05a1.12,1.12,0,0,1-1.12-1.12V78.53h2.24v22.4H88V49.41H85.77V47.17h3.36a1.12,1.12,0,0,1,1.12,1.12v53.76A1.12,1.12,0,0,1,89.13,103.17Z" transform="translate(-36.49 -38.21)"/><rect class="cls-1" x="20.16" y="44.8" width="26.88" height="2.24"/><rect class="cls-1" x="20.16" y="49.28" width="26.88" height="2.24"/><rect class="cls-1" x="20.16" y="40.32" width="26.88" height="2.24"/><rect class="cls-1" x="20.16" y="17.92" width="26.88" height="2.24"/><rect class="cls-1" x="20.16" y="22.4" width="26.88" height="2.24"/><rect class="cls-1" x="20.16" y="53.76" width="14.56" height="2.24"/><path class="cls-1" d="M77.93,47.17H62.25a1.12,1.12,0,0,1-1.12-1.12V42.69h2.24v2.24H76.81V42.69h2.24v3.36A1.12,1.12,0,0,1,77.93,47.17Z" transform="translate(-36.49 -38.21)"/><path class="cls-1" d="M56.65,76.29H41a2.25,2.25,0,0,1-2.24-2.24V67.33A2.24,2.24,0,0,1,41,65.09H56.65a2.24,2.24,0,0,1,2.24,2.24v6.72A2.24,2.24,0,0,1,56.65,76.29ZM41,67.33v6.72H56.66V67.33Z" transform="translate(-36.49 -38.21)"/><path class="cls-1" d="M79.05,76.29H63.37a2.25,2.25,0,0,1-2.24-2.24V67.33a2.24,2.24,0,0,1,2.24-2.24H79.05a2.24,2.24,0,0,1,2.24,2.24v6.72A2.24,2.24,0,0,1,79.05,76.29Zm-15.68-9v6.72H79.06V67.33Z" transform="translate(-36.49 -38.21)"/><rect class="cls-1" x="21.28" y="31.36" width="4.48" height="2.24"/><rect class="cls-1" y="29.12" width="3.36" height="2.24"/><rect class="cls-1" x="43.68" y="29.12" width="3.36" height="2.24"/><rect class="cls-1" x="69.44" y="11.2" width="2.24" height="48.16"/><rect class="cls-1" x="62.72" y="11.2" width="2.24" height="48.16"/><path class="cls-1" d="M108.17,50.53h-9V42.69h9Zm-6.72-2.24h4.48V44.93h-4.48Z" transform="translate(-36.49 -38.21)"/><path class="cls-1" d="M103.69,109.89a1.12,1.12,0,0,1-1-.62l-3.36-6.72a1.11,1.11,0,0,1-.12-.5V95.33a1.12,1.12,0,0,1,1.12-1.12h6.72a1.12,1.12,0,0,1,1.12,1.12v6.72a1.25,1.25,0,0,1-.11.5l-3.36,6.72A1.13,1.13,0,0,1,103.69,109.89Zm-2.24-8.11,2.24,4.48,2.24-4.48V96.45h-4.48Z" transform="translate(-36.49 -38.21)"/><rect class="cls-1" x="63.84" y="40.32" width="6.72" height="2.24"/><polygon class="cls-1" points="60.48 31.36 58.24 31.36 58.24 10.08 63.84 10.08 63.84 12.32 60.48 12.32 60.48 31.36"/></svg>