<svg id="Synthesize" xmlns="http://www.w3.org/2000/svg" viewBox="0 0 71.68 71.68"><defs><style>.cls-1{fill:#10b9c1;}</style></defs><rect class="cls-1" x="34.72" y="19.04" width="2.24" height="6.72"/><path class="cls-1" d="M82.41,109.89H62.25V85.25H78.4l4,4Zm-17.92-2.24H80.17V90.19l-2.7-2.7h-13Z" transform="translate(-36.49 -38.21)"/><rect class="cls-1" x="30.24" y="51.52" width="4.48" height="2.24"/><rect class="cls-1" x="30.24" y="56" width="11.2" height="2.24"/><rect class="cls-1" x="30.24" y="60.48" width="11.2" height="2.24"/><rect class="cls-1" x="30.24" y="64.96" width="11.2" height="2.24"/><path class="cls-1" d="M108.17,109.89H88V85.25h16.15l4,4Zm-17.92-2.24h15.68V90.19l-2.7-2.7h-13Z" transform="translate(-36.49 -38.21)"/><rect class="cls-1" x="56" y="51.52" width="4.48" height="2.24"/><rect class="cls-1" x="56" y="56" width="11.2" height="2.24"/><rect class="cls-1" x="56" y="60.48" width="11.2" height="2.24"/><rect class="cls-1" x="56" y="64.96" width="11.2" height="2.24"/><path class="cls-1" d="M56.65,109.89H36.49V85.25H52.64l4,4Zm-17.92-2.24H54.41V90.19l-2.7-2.7h-13Z" transform="translate(-36.49 -38.21)"/><rect class="cls-1" x="4.48" y="51.52" width="4.48" height="2.24"/><rect class="cls-1" x="4.48" y="56" width="11.2" height="2.24"/><rect class="cls-1" x="4.48" y="60.48" width="11.2" height="2.24"/><rect class="cls-1" x="4.48" y="64.96" width="11.2" height="2.24"/><rect class="cls-1" x="34.72" y="41.44" width="2.24" height="6.72"/><path class="cls-1" d="M98.09,58.37a10.08,10.08,0,1,1,10.08-10.08A10.1,10.1,0,0,1,98.09,58.37Zm0-17.92a7.84,7.84,0,1,0,7.84,7.84A7.85,7.85,0,0,0,98.09,40.45Z" transform="translate(-36.49 -38.21)"/><path class="cls-1" d="M72.33,58.37A10.08,10.08,0,1,1,82.41,48.29,10.1,10.1,0,0,1,72.33,58.37Zm0-17.92a7.84,7.84,0,1,0,7.84,7.84A7.85,7.85,0,0,0,72.33,40.45Z" transform="translate(-36.49 -38.21)"/><path class="cls-1" d="M46.57,58.37A10.08,10.08,0,1,1,56.65,48.29,10.1,10.1,0,0,1,46.57,58.37Zm0-17.92a7.84,7.84,0,1,0,7.84,7.84A7.85,7.85,0,0,0,46.57,40.45Z" transform="translate(-36.49 -38.21)"/><path class="cls-1" d="M84.65,80.77H60a3.37,3.37,0,0,1-3.36-3.36V66.21A3.36,3.36,0,0,1,60,62.85H84.65A3.35,3.35,0,0,1,88,66.21v11.2A3.36,3.36,0,0,1,84.65,80.77ZM60,65.09a1.12,1.12,0,0,0-1.12,1.12v11.2A1.13,1.13,0,0,0,60,78.53H84.65a1.12,1.12,0,0,0,1.12-1.12V66.21a1.12,1.12,0,0,0-1.12-1.12Z" transform="translate(-36.49 -38.21)"/><path class="cls-1" d="M54.41,70.69h-5.6a3.37,3.37,0,0,1-3.36-3.36V57.25h2.24V67.33a1.13,1.13,0,0,0,1.12,1.12h5.6Z" transform="translate(-36.49 -38.21)"/><path class="cls-1" d="M47.69,86.37H45.45V76.29a3.36,3.36,0,0,1,3.36-3.36h5.6v2.24h-5.6a1.12,1.12,0,0,0-1.12,1.12Z" transform="translate(-36.49 -38.21)"/><path class="cls-1" d="M95.85,70.69h-5.6V68.45h5.6A1.12,1.12,0,0,0,97,67.33V57.25h2.24V67.33A3.36,3.36,0,0,1,95.85,70.69Z" transform="translate(-36.49 -38.21)"/><path class="cls-1" d="M99.21,86.37H97V76.29a1.12,1.12,0,0,0-1.12-1.12h-5.6V72.93h5.6a3.35,3.35,0,0,1,3.36,3.36Z" transform="translate(-36.49 -38.21)"/><rect class="cls-1" x="34.72" y="32.48" width="2.24" height="2.24"/><rect class="cls-1" x="30.24" y="32.48" width="2.24" height="2.24"/><rect class="cls-1" x="39.2" y="32.48" width="2.24" height="2.24"/></svg>