<?xml version="1.0" encoding="utf-8"?>
<!-- Generator: Adobe Illustrator 25.2.3, SVG Export Plug-In . SVG Version: 6.00 Build 0)  -->
<svg version="1.1" xmlns="http://www.w3.org/2000/svg" xmlns:xlink="http://www.w3.org/1999/xlink" x="0px" y="0px"
	 viewBox="0 0 145 145" style="enable-background:new 0 0 145 145;" xml:space="preserve">
<style type="text/css">
	.st0{display:none;}
	.st1{display:inline;opacity:0.2;fill:none;stroke:#363F40;stroke-miterlimit:10;}
	.st2{display:inline;}
	.st3{fill:#10B9C1;}
	.st4{fill:#10B9C1;stroke:#363F40;stroke-width:2;stroke-miterlimit:10;}
</style>
<g id="Layer_6" class="st0">
	<circle class="st1" cx="72.33" cy="72.06" r="70"/>
</g>
<g id="Prioritize" class="st0">
	<g class="st2">
		<g>
			<path class="st3" d="M88.01,109.89H38.73c-0.62,0-1.12-0.5-1.12-1.12V39.33c0-0.62,0.5-1.12,1.12-1.12h40.32
				c0.3,0,0.58,0.12,0.79,0.33l8.96,8.96c0.21,0.21,0.33,0.49,0.33,0.79v60.48C89.13,109.39,88.63,109.89,88.01,109.89z
				 M39.85,107.65h47.04v-58.9l-8.3-8.3H39.85V107.65z"/>
		</g>
		<g>
			<g>
				<polygon class="st3" points="48.81,64.43 44.66,60.28 46.25,58.69 48.81,61.26 52.5,57.57 54.09,59.16 				"/>
			</g>
		</g>
		<g>
			<rect x="57.77" y="57.25" class="st3" width="11.2" height="2.24"/>
		</g>
		<g>
			<rect x="57.77" y="61.73" class="st3" width="17.92" height="2.24"/>
		</g>
		<g>
			<g>
				<polygon class="st3" points="48.81,75.63 44.66,71.48 46.25,69.89 48.81,72.46 52.5,68.77 54.09,70.36 				"/>
			</g>
		</g>
		<g>
			<rect x="57.77" y="68.45" class="st3" width="24.64" height="2.24"/>
		</g>
		<g>
			<rect x="57.77" y="72.93" class="st3" width="8.96" height="2.24"/>
		</g>
		<g>
			<rect x="57.77" y="79.65" class="st3" width="24.64" height="2.24"/>
		</g>
		<g>
			<rect x="57.77" y="84.13" class="st3" width="13.44" height="2.24"/>
		</g>
		<g>
			<rect x="57.77" y="90.85" class="st3" width="15.68" height="2.24"/>
		</g>
		<g>
			<rect x="57.77" y="95.33" class="st3" width="24.64" height="2.24"/>
		</g>
		<g>
			<g>
				<g>
					<rect x="100.33" y="44.93" class="st3" width="2.24" height="51.52"/>
				</g>
				<g>
					<rect x="93.61" y="44.93" class="st3" width="2.24" height="51.52"/>
				</g>
				<g>
					<path class="st3" d="M102.57,46.05h-8.96v-7.84h8.96V46.05z M95.85,43.81h4.48v-3.36h-4.48V43.81z"/>
				</g>
				<g>
					<path class="st3" d="M98.09,109.89c-0.39,0-0.76-0.21-0.96-0.54l-3.36-5.6c-0.11-0.17-0.16-0.37-0.16-0.58v-6.72
						c0-0.62,0.5-1.12,1.12-1.12h6.72c0.62,0,1.12,0.5,1.12,1.12v6.72c0,0.2-0.05,0.4-0.16,0.58l-3.36,5.6
						C98.85,109.68,98.49,109.89,98.09,109.89z M95.85,102.86l2.24,3.73l2.24-3.73v-5.29h-4.48V102.86z"/>
				</g>
				<g>
					<rect x="94.73" y="77.41" class="st3" width="6.72" height="2.24"/>
				</g>
			</g>
			<g>
				<polygon class="st3" points="107.05,67.33 104.81,67.33 104.81,52.77 101.45,52.77 101.45,50.53 107.05,50.53 				"/>
			</g>
			<g>
				<rect x="94.73" y="81.89" class="st3" width="6.72" height="2.24"/>
			</g>
			<g>
				<rect x="94.73" y="86.37" class="st3" width="6.72" height="2.24"/>
			</g>
			<g>
				<rect x="94.73" y="90.85" class="st3" width="6.72" height="2.24"/>
			</g>
		</g>
		<g>
			<rect x="68.97" y="72.93" class="st3" width="13.44" height="2.24"/>
		</g>
		<g>
			<rect x="71.21" y="57.25" class="st3" width="11.2" height="2.24"/>
		</g>
		<g>
			<rect x="75.69" y="90.85" class="st3" width="6.72" height="2.24"/>
		</g>
		<g>
			<path class="st3" d="M88.01,49.41h-8.96c-0.62,0-1.12-0.5-1.12-1.12v-8.96h2.24v7.84h7.84V49.41z"/>
		</g>
		<g>
			<rect x="44.33" y="42.69" class="st3" width="2.24" height="2.24"/>
		</g>
		<g>
			<rect x="48.81" y="42.69" class="st3" width="2.24" height="2.24"/>
		</g>
		<g>
			<rect x="53.29" y="42.69" class="st3" width="2.24" height="2.24"/>
		</g>
		<g>
			<rect x="44.33" y="47.17" class="st3" width="29.12" height="2.24"/>
		</g>
		<g>
			
				<rect x="44.06" y="81.89" transform="matrix(0.7071 -0.7071 0.7071 0.7071 -44.3975 58.8283)" class="st3" width="9.5" height="2.24"/>
		</g>
		<g>
			
				<rect x="47.69" y="78.25" transform="matrix(0.7071 -0.7071 0.7071 0.7071 -44.3975 58.8283)" class="st3" width="2.24" height="9.5"/>
		</g>
		<g>
			
				<rect x="44.06" y="93.09" transform="matrix(0.7071 -0.7071 0.7071 0.7071 -52.3171 62.1087)" class="st3" width="9.5" height="2.24"/>
		</g>
		<g>
			
				<rect x="47.69" y="89.45" transform="matrix(0.7071 -0.7071 0.7071 0.7071 -52.3171 62.1087)" class="st3" width="2.24" height="9.5"/>
		</g>
	</g>
</g>
<g id="Research" class="st0">
	<g class="st2">
		<g>
			<g>
				<g>
					<path class="st3" d="M45.45,62.85h-2.24V43.81c0-0.62,0.5-1.12,1.12-1.12h13.44v2.24H45.45V62.85z"/>
				</g>
				<g>
					<path class="st3" d="M95.85,109.89H44.33c-0.62,0-1.12-0.5-1.12-1.12V78.53h2.24v29.12h49.28V71.81h2.24v36.96
						C96.97,109.39,96.47,109.89,95.85,109.89z"/>
				</g>
				<g>
					<path class="st3" d="M96.97,46.05h-2.24v-1.12H82.41v-2.24h13.44c0.62,0,1.12,0.5,1.12,1.12V46.05z"/>
				</g>
				<g>
					<path class="st3" d="M82.41,51.65H57.77c-0.62,0-1.12-0.5-1.12-1.12v-11.2c0-0.62,0.5-1.12,1.12-1.12h24.64
						c0.62,0,1.12,0.5,1.12,1.12v11.2C83.53,51.15,83.03,51.65,82.41,51.65z M58.89,49.41h22.4v-8.96h-22.4V49.41z"/>
				</g>
				<g>
					<path class="st3" d="M52.17,62.85h-2.24V48.29c0-0.62,0.5-1.12,1.12-1.12h3.36v2.24h-2.24V62.85z"/>
				</g>
				<g>
					<path class="st3" d="M89.13,103.17H51.05c-0.62,0-1.12-0.5-1.12-1.12V78.53h2.24v22.4h35.84V49.41h-2.24v-2.24h3.36
						c0.62,0,1.12,0.5,1.12,1.12v53.76C90.25,102.67,89.75,103.17,89.13,103.17z"/>
				</g>
				<g>
					<rect x="56.65" y="83.01" class="st3" width="26.88" height="2.24"/>
				</g>
				<g>
					<rect x="56.65" y="87.49" class="st3" width="26.88" height="2.24"/>
				</g>
				<g>
					<rect x="56.65" y="78.53" class="st3" width="26.88" height="2.24"/>
				</g>
				<g>
					<rect x="56.65" y="56.13" class="st3" width="26.88" height="2.24"/>
				</g>
				<g>
					<rect x="56.65" y="60.61" class="st3" width="26.88" height="2.24"/>
				</g>
				<g>
					<rect x="56.65" y="91.97" class="st3" width="14.56" height="2.24"/>
				</g>
				<g>
					<path class="st3" d="M77.93,47.17H62.25c-0.62,0-1.12-0.5-1.12-1.12v-3.36h2.24v2.24h13.44v-2.24h2.24v3.36
						C79.05,46.67,78.55,47.17,77.93,47.17z"/>
				</g>
				<g>
					<g>
						<path class="st3" d="M56.65,76.29H40.97c-1.24,0-2.24-1.01-2.24-2.24v-6.72c0-1.23,1-2.24,2.24-2.24h15.68
							c1.24,0,2.24,1.01,2.24,2.24v6.72C58.89,75.28,57.89,76.29,56.65,76.29z M40.97,67.33v6.72h15.68l0-6.72H40.97z"/>
					</g>
					<g>
						<path class="st3" d="M79.05,76.29H63.37c-1.24,0-2.24-1.01-2.24-2.24v-6.72c0-1.23,1-2.24,2.24-2.24h15.68
							c1.24,0,2.24,1.01,2.24,2.24v6.72C81.29,75.28,80.29,76.29,79.05,76.29z M63.37,67.33v6.72h15.68l0-6.72H63.37z"/>
					</g>
					<g>
						<rect x="57.77" y="69.57" class="st3" width="4.48" height="2.24"/>
					</g>
					<g>
						<rect x="36.49" y="67.33" class="st3" width="3.36" height="2.24"/>
					</g>
					<g>
						<rect x="80.17" y="67.33" class="st3" width="3.36" height="2.24"/>
					</g>
				</g>
				<g>
					<g>
						<g>
							<rect x="105.93" y="49.41" class="st3" width="2.24" height="48.16"/>
						</g>
						<g>
							<rect x="99.21" y="49.41" class="st3" width="2.24" height="48.16"/>
						</g>
						<g>
							<path class="st3" d="M108.17,50.53h-8.96v-7.84h8.96V50.53z M101.45,48.29h4.48v-3.36h-4.48V48.29z"/>
						</g>
						<g>
							<path class="st3" d="M103.69,109.89c-0.42,0-0.81-0.24-1-0.62l-3.36-6.72c-0.08-0.16-0.12-0.33-0.12-0.5v-6.72
								c0-0.62,0.5-1.12,1.12-1.12h6.72c0.62,0,1.12,0.5,1.12,1.12v6.72c0,0.17-0.04,0.35-0.12,0.5l-3.36,6.72
								C104.51,109.65,104.12,109.89,103.69,109.89z M101.45,101.78l2.24,4.48l2.24-4.48v-5.34h-4.48V101.78z"/>
						</g>
						<g>
							<rect x="100.33" y="78.53" class="st3" width="6.72" height="2.24"/>
						</g>
					</g>
				</g>
				<g>
					<polygon class="st3" points="96.97,69.57 94.73,69.57 94.73,48.29 100.33,48.29 100.33,50.53 96.97,50.53 					"/>
				</g>
			</g>
		</g>
	</g>
</g>
<g id="Synthesize" class="st0">
	<g class="st2">
		<g>
			<g>
				<rect x="71.21" y="57.25" class="st3" width="2.24" height="6.72"/>
			</g>
			<g>
				<g>
					<path class="st3" d="M82.41,109.89H62.25V85.25H78.4l4.02,4.02V109.89z M64.49,107.65h15.68V90.19l-2.7-2.7H64.49V107.65z"/>
				</g>
				<g>
					<rect x="66.73" y="89.73" class="st3" width="4.48" height="2.24"/>
				</g>
				<g>
					<rect x="66.73" y="94.21" class="st3" width="11.2" height="2.24"/>
				</g>
				<g>
					<rect x="66.73" y="98.69" class="st3" width="11.2" height="2.24"/>
				</g>
				<g>
					<rect x="66.73" y="103.17" class="st3" width="11.2" height="2.24"/>
				</g>
			</g>
			<g>
				<g>
					<path class="st3" d="M108.17,109.89H88.01V85.25h16.14l4.02,4.02V109.89z M90.25,107.65h15.68V90.19l-2.7-2.7H90.25V107.65z"/>
				</g>
				<g>
					<rect x="92.49" y="89.73" class="st3" width="4.48" height="2.24"/>
				</g>
				<g>
					<rect x="92.49" y="94.21" class="st3" width="11.2" height="2.24"/>
				</g>
				<g>
					<rect x="92.49" y="98.69" class="st3" width="11.2" height="2.24"/>
				</g>
				<g>
					<rect x="92.49" y="103.17" class="st3" width="11.2" height="2.24"/>
				</g>
			</g>
			<g>
				<g>
					<path class="st3" d="M56.65,109.89H36.49V85.25h16.14l4.02,4.02V109.89z M38.73,107.65h15.68V90.19l-2.7-2.7H38.73V107.65z"/>
				</g>
				<g>
					<rect x="40.97" y="89.73" class="st3" width="4.48" height="2.24"/>
				</g>
				<g>
					<rect x="40.97" y="94.21" class="st3" width="11.2" height="2.24"/>
				</g>
				<g>
					<rect x="40.97" y="98.69" class="st3" width="11.2" height="2.24"/>
				</g>
				<g>
					<rect x="40.97" y="103.17" class="st3" width="11.2" height="2.24"/>
				</g>
			</g>
			<g>
				<rect x="71.21" y="79.65" class="st3" width="2.24" height="6.72"/>
			</g>
			<g>
				<path class="st3" d="M98.09,58.37c-5.56,0-10.08-4.52-10.08-10.08s4.52-10.08,10.08-10.08c5.56,0,10.08,4.52,10.08,10.08
					S103.65,58.37,98.09,58.37z M98.09,40.45c-4.32,0-7.84,3.52-7.84,7.84s3.52,7.84,7.84,7.84c4.32,0,7.84-3.52,7.84-7.84
					S102.42,40.45,98.09,40.45z"/>
			</g>
			<g>
				<path class="st3" d="M72.33,58.37c-5.56,0-10.08-4.52-10.08-10.08s4.52-10.08,10.08-10.08c5.56,0,10.08,4.52,10.08,10.08
					S77.89,58.37,72.33,58.37z M72.33,40.45c-4.32,0-7.84,3.52-7.84,7.84s3.52,7.84,7.84,7.84c4.32,0,7.84-3.52,7.84-7.84
					S76.66,40.45,72.33,40.45z"/>
			</g>
			<g>
				<path class="st3" d="M46.57,58.37c-5.56,0-10.08-4.52-10.08-10.08s4.52-10.08,10.08-10.08c5.56,0,10.08,4.52,10.08,10.08
					S52.13,58.37,46.57,58.37z M46.57,40.45c-4.32,0-7.84,3.52-7.84,7.84s3.52,7.84,7.84,7.84c4.32,0,7.84-3.52,7.84-7.84
					S50.9,40.45,46.57,40.45z"/>
			</g>
			<g>
				<path class="st3" d="M84.65,80.77H60.01c-1.85,0-3.36-1.51-3.36-3.36v-11.2c0-1.85,1.51-3.36,3.36-3.36h24.64
					c1.85,0,3.36,1.51,3.36,3.36v11.2C88.01,79.26,86.51,80.77,84.65,80.77z M60.01,65.09c-0.62,0-1.12,0.5-1.12,1.12v11.2
					c0,0.62,0.5,1.12,1.12,1.12h24.64c0.62,0,1.12-0.5,1.12-1.12v-11.2c0-0.62-0.5-1.12-1.12-1.12H60.01z"/>
			</g>
			<g>
				<path class="st3" d="M54.41,70.69h-5.6c-1.85,0-3.36-1.51-3.36-3.36V57.25h2.24v10.08c0,0.62,0.5,1.12,1.12,1.12h5.6V70.69z"/>
			</g>
			<g>
				<path class="st3" d="M47.69,86.37h-2.24V76.29c0-1.85,1.51-3.36,3.36-3.36h5.6v2.24h-5.6c-0.62,0-1.12,0.5-1.12,1.12V86.37z"/>
			</g>
			<g>
				<path class="st3" d="M95.85,70.69h-5.6v-2.24h5.6c0.62,0,1.12-0.5,1.12-1.12V57.25h2.24v10.08
					C99.21,69.18,97.71,70.69,95.85,70.69z"/>
			</g>
			<g>
				<path class="st3" d="M99.21,86.37h-2.24V76.29c0-0.62-0.5-1.12-1.12-1.12h-5.6v-2.24h5.6c1.85,0,3.36,1.51,3.36,3.36V86.37z"/>
			</g>
			<g>
				<rect x="71.21" y="70.69" class="st3" width="2.24" height="2.24"/>
			</g>
			<g>
				<rect x="66.73" y="70.69" class="st3" width="2.24" height="2.24"/>
			</g>
			<g>
				<rect x="75.69" y="70.69" class="st3" width="2.24" height="2.24"/>
			</g>
		</g>
	</g>
</g>
<g id="Design" class="st0">
	<g class="st2">
		<g>
			<g>
				<path class="st3" d="M99.21,94.46H36.49V48.54h56v31.04c1.64-1.86,4.05-3.04,6.72-3.04c4.94,0,8.96,4.02,8.96,8.96
					C108.17,90.44,104.15,94.46,99.21,94.46z M38.73,92.22h60.48c3.71,0,6.72-3.01,6.72-6.72c0-3.71-3.01-6.72-6.72-6.72
					c-3.71,0-6.72,3.01-6.72,6.72h-2.24V50.78H38.73V92.22z"/>
			</g>
			<g>
				<path class="st3" d="M108.17,85.5h-2.24V49.66c0-3.71-3.01-6.72-6.72-6.72c-3.71,0-6.72,3.01-6.72,6.72h-2.24
					c0-4.94,4.02-8.96,8.96-8.96c4.94,0,8.96,4.02,8.96,8.96V85.5z"/>
			</g>
			<g>
				<rect x="98.09" y="54.14" class="st3" width="2.24" height="2.24"/>
			</g>
			<g>
				<rect x="98.09" y="58.62" class="st3" width="2.24" height="2.24"/>
			</g>
			<g>
				<rect x="98.09" y="63.1" class="st3" width="2.24" height="2.24"/>
			</g>
			<g>
				<g>
					<path class="st3" d="M108.17,107.9H36.49V96.7h71.68V107.9z M38.73,105.66h67.2v-6.72h-67.2V105.66z"/>
				</g>
				<g>
					<rect x="47.69" y="103.42" class="st3" width="2.24" height="3.36"/>
				</g>
				<g>
					<rect x="52.17" y="103.42" class="st3" width="2.24" height="3.36"/>
				</g>
				<g>
					<rect x="56.65" y="103.42" class="st3" width="2.24" height="3.36"/>
				</g>
				<g>
					<rect x="61.13" y="103.42" class="st3" width="2.24" height="3.36"/>
				</g>
				<g>
					<rect x="65.61" y="103.42" class="st3" width="2.24" height="3.36"/>
				</g>
				<g>
					<rect x="70.09" y="103.42" class="st3" width="2.24" height="3.36"/>
				</g>
				<g>
					<rect x="74.57" y="103.42" class="st3" width="2.24" height="3.36"/>
				</g>
				<g>
					<rect x="79.05" y="103.42" class="st3" width="2.24" height="3.36"/>
				</g>
				<g>
					<rect x="83.53" y="103.42" class="st3" width="2.24" height="3.36"/>
				</g>
				<g>
					<rect x="88.01" y="103.42" class="st3" width="2.24" height="3.36"/>
				</g>
				<g>
					<rect x="92.49" y="103.42" class="st3" width="2.24" height="3.36"/>
				</g>
				<g>
					<rect x="96.97" y="103.42" class="st3" width="2.24" height="3.36"/>
				</g>
				<g>
					<rect x="101.45" y="103.42" class="st3" width="2.24" height="3.36"/>
				</g>
				<g>
					<rect x="40.97" y="101.18" class="st3" width="2.24" height="2.24"/>
				</g>
			</g>
			<g>
				<rect x="42.09" y="54.14" class="st3" width="4.48" height="2.24"/>
			</g>
			<g>
				<rect x="62.25" y="54.14" class="st3" width="4.48" height="2.24"/>
			</g>
			<g>
				<rect x="55.53" y="54.14" class="st3" width="4.48" height="2.24"/>
			</g>
			<g>
				<rect x="68.97" y="54.14" class="st3" width="4.48" height="2.24"/>
			</g>
			<g>
				<rect x="75.69" y="54.14" class="st3" width="4.48" height="2.24"/>
			</g>
			<g>
				<rect x="82.41" y="54.14" class="st3" width="4.48" height="2.24"/>
			</g>
			<g>
				<path class="st3" d="M86.89,68.7h-44.8V58.62h44.8V68.7z M44.33,66.46h40.32v-5.6H44.33V66.46z"/>
			</g>
			<g>
				<path class="st3" d="M55.53,79.9H42.09v-8.96h13.44V79.9z M44.33,77.66h8.96v-4.48h-8.96V77.66z"/>
			</g>
			<g>
				<path class="st3" d="M71.21,79.9H57.77v-8.96h13.44V79.9z M60.01,77.66h8.96v-4.48h-8.96V77.66z"/>
			</g>
			<g>
				<path class="st3" d="M86.89,79.9H73.45v-8.96h13.44V79.9z M75.69,77.66h8.96v-4.48h-8.96V77.66z"/>
			</g>
			<g>
				<rect x="42.09" y="82.14" class="st3" width="13.44" height="2.24"/>
			</g>
			<g>
				<rect x="42.09" y="86.62" class="st3" width="13.44" height="2.24"/>
			</g>
			<g>
				<rect x="57.77" y="82.14" class="st3" width="13.44" height="2.24"/>
			</g>
			<g>
				<rect x="57.77" y="86.62" class="st3" width="13.44" height="2.24"/>
			</g>
			<g>
				<rect x="73.45" y="82.14" class="st3" width="13.44" height="2.24"/>
			</g>
			<g>
				<rect x="73.45" y="86.62" class="st3" width="13.44" height="2.24"/>
			</g>
		</g>
	</g>
</g>
<g id="Validate" class="st0">
	<g class="st2">
		<g>
			<path class="st3" d="M108.17,111.26H36.49V39.58h71.68V111.26z M38.73,109.02h67.2v-67.2h-67.2V109.02z"/>
		</g>
		<g>
			<rect x="37.61" y="48.54" class="st3" width="69.44" height="2.24"/>
		</g>
		<g>
			<rect x="40.97" y="44.06" class="st3" width="2.24" height="2.24"/>
		</g>
		<g>
			<rect x="45.45" y="44.06" class="st3" width="2.24" height="2.24"/>
		</g>
		<g>
			<rect x="49.93" y="44.06" class="st3" width="2.24" height="2.24"/>
		</g>
		<g>
			<rect x="54.41" y="40.7" class="st3" width="2.24" height="8.96"/>
		</g>
		<g>
			<rect x="58.89" y="44.06" class="st3" width="44.8" height="2.24"/>
		</g>
		<g>
			<path class="st3" d="M103.69,106.78H40.97V53.02h62.72V106.78z M43.21,104.54h58.24V55.26H43.21V104.54z"/>
		</g>
		<g>
			<g>
				<path class="st3" d="M72.33,75.42c-3.83,0-6.72-3.61-6.72-8.4c0-3.39,0.76-7.28,6.72-7.28c5.96,0,6.72,3.89,6.72,7.28
					C79.05,71.8,76.16,75.42,72.33,75.42z M72.33,61.98c-3.39,0-4.48,1.23-4.48,5.04c0,2.99,1.57,6.16,4.48,6.16
					c2.91,0,4.48-3.17,4.48-6.16C76.81,63.2,75.72,61.98,72.33,61.98z"/>
			</g>
			<g>
				<path class="st3" d="M80.17,84.38H64.49c-1.82,0-3.36-2.05-3.36-4.48v-2.84l7.22-4.81l1.24,1.86l-6.22,4.15v1.64
					c0,1.37,0.79,2.24,1.12,2.24h15.68c0.33,0,1.12-0.87,1.12-2.24v-1.64l-6.22-4.15l1.24-1.86l7.22,4.81v2.84
					C83.53,82.32,81.99,84.38,80.17,84.38z"/>
			</g>
		</g>
		<g>
			<g>
				<path class="st3" d="M93.61,84.38h-7.84v-2.24h7.84c0.33,0,1.12-0.87,1.12-2.24v-1.64l-6.22-4.15l1.24-1.86l7.22,4.81v2.84
					C96.97,82.32,95.43,84.38,93.61,84.38z"/>
			</g>
			<g>
				<path class="st3" d="M86.89,74.3c-3.09,0-5.6-2.51-5.6-5.6s2.51-5.6,5.6-5.6s5.6,2.51,5.6,5.6S89.98,74.3,86.89,74.3z
					 M86.89,65.34c-1.85,0-3.36,1.51-3.36,3.36s1.51,3.36,3.36,3.36c1.85,0,3.36-1.51,3.36-3.36S88.75,65.34,86.89,65.34z"/>
			</g>
		</g>
		<g>
			<g>
				<path class="st3" d="M58.89,84.38h-7.84c-1.82,0-3.36-2.05-3.36-4.48v-2.84l7.22-4.81l1.24,1.86l-6.22,4.15v1.64
					c0,1.37,0.79,2.24,1.12,2.24h7.84V84.38z"/>
			</g>
			<g>
				<path class="st3" d="M57.77,74.3c-3.09,0-5.6-2.51-5.6-5.6s2.51-5.6,5.6-5.6s5.6,2.51,5.6,5.6S60.86,74.3,57.77,74.3z
					 M57.77,65.34c-1.85,0-3.36,1.51-3.36,3.36s1.51,3.36,3.36,3.36c1.85,0,3.36-1.51,3.36-3.36S59.63,65.34,57.77,65.34z"/>
			</g>
		</g>
		<g>
			<rect x="60.01" y="87.74" class="st3" width="36.96" height="2.24"/>
		</g>
		<g>
			<rect x="47.69" y="87.74" class="st3" width="8.96" height="2.24"/>
		</g>
		<g>
			<rect x="82.41" y="92.22" class="st3" width="14.56" height="2.24"/>
		</g>
		<g>
			<rect x="47.69" y="92.22" class="st3" width="31.36" height="2.24"/>
		</g>
		<g>
			<rect x="68.97" y="96.7" class="st3" width="28" height="2.24"/>
		</g>
		<g>
			<rect x="47.69" y="96.7" class="st3" width="17.92" height="2.24"/>
		</g>
		<g>
			<rect x="58.89" y="86.62" class="st3" width="2.24" height="4.48"/>
		</g>
		<g>
			<rect x="81.29" y="91.1" class="st3" width="2.24" height="4.48"/>
		</g>
		<g>
			<rect x="67.85" y="95.58" class="st3" width="2.24" height="4.48"/>
		</g>
	</g>
</g>
<g id="Layer_7" class="st0">
	<g class="st2">
		<g>
			<g>
				<g>
					<path class="st3" d="M71.34,71.34H56.31v-2.98l0.58-0.33c1.87-1.08,2.89-2.78,2.89-4.78c0-3.19-2.59-5.78-5.78-5.78
						s-5.78,2.59-5.78,5.78c0,2,1.03,3.7,2.89,4.78l0.58,0.33v2.98H35.5V40.12c0-2.55,2.07-4.62,4.62-4.62h31.22v2.31H40.12
						c-1.28,0-2.31,1.04-2.31,2.31v28.91h10.74c-1.7-1.49-2.64-3.52-2.64-5.78c0-4.46,3.63-8.09,8.09-8.09s8.09,3.63,8.09,8.09
						c0,2.26-0.95,4.3-2.64,5.78h11.89V71.34z"/>
				</g>
			</g>
			<g>
				<g>
					<path class="st3" d="M71.34,109.5H40.12c-2.55,0-4.62-2.07-4.62-4.62V73.66h2.31v31.22c0,1.28,1.04,2.31,2.31,2.31h28.91V96.45
						c-1.49,1.7-3.52,2.64-5.78,2.64c-4.46,0-8.09-3.63-8.09-8.09s3.63-8.09,8.09-8.09c2.26,0,4.3,0.95,5.78,2.64V73.66h2.31v15.03
						h-2.98l-0.33-0.58c-1.08-1.87-2.78-2.89-4.78-2.89c-3.19,0-5.78,2.59-5.78,5.78s2.59,5.78,5.78,5.78c2,0,3.7-1.03,4.78-2.89
						l0.33-0.58h2.98V109.5z"/>
				</g>
			</g>
			<g>
				<g>
					<path class="st3" d="M104.88,109.5H73.66v-2.31h31.22c1.28,0,2.31-1.04,2.31-2.31V75.97H96.54c1.66,1.41,2.56,3.41,2.56,5.78
						c0,4.46-3.63,8.09-8.09,8.09c-4.46,0-8.09-3.63-8.09-8.09c0-2.37,0.89-4.37,2.56-5.78H73.66v-2.31h15.03v3.01L88.06,77
						c-1.89,0.98-2.84,2.58-2.84,4.75c0,3.19,2.59,5.78,5.78,5.78c3.19,0,5.78-2.59,5.78-5.78c0-2.18-0.96-3.78-2.84-4.75
						l-0.62-0.32v-3.01h16.19v31.22C109.5,107.43,107.43,109.5,104.88,109.5z"/>
				</g>
			</g>
			<g>
				<g>
					<path class="st3" d="M109.5,71.34h-2.31V40.12c0-1.28-1.04-2.31-2.31-2.31H75.97v10.74c1.49-1.7,3.52-2.64,5.78-2.64
						c4.46,0,8.09,3.63,8.09,8.09s-3.63,8.09-8.09,8.09c-2.26,0-4.3-0.95-5.78-2.64v11.89h-2.31V56.31h2.98l0.33,0.58
						c1.08,1.87,2.78,2.89,4.78,2.89c3.19,0,5.78-2.59,5.78-5.78s-2.59-5.78-5.78-5.78c-2,0-3.7,1.03-4.78,2.89l-0.33,0.58h-2.98
						V35.5h31.22c2.55,0,4.62,2.07,4.62,4.62V71.34z"/>
				</g>
			</g>
		</g>
		<g>
			<rect x="69.03" y="40.12" class="st3" width="2.31" height="2.31"/>
		</g>
		<g>
			<rect x="64.41" y="40.12" class="st3" width="2.31" height="2.31"/>
		</g>
		<g>
			<rect x="59.78" y="40.12" class="st3" width="2.31" height="2.31"/>
		</g>
		<g>
			<rect x="82.91" y="102.56" class="st3" width="2.31" height="2.31"/>
		</g>
		<g>
			<rect x="78.28" y="102.56" class="st3" width="2.31" height="2.31"/>
		</g>
		<g>
			<rect x="73.66" y="102.56" class="st3" width="2.31" height="2.31"/>
		</g>
		<g>
			<rect x="40.12" y="73.66" class="st3" width="2.31" height="2.31"/>
		</g>
		<g>
			<rect x="40.12" y="78.28" class="st3" width="2.31" height="2.31"/>
		</g>
		<g>
			<rect x="40.12" y="82.91" class="st3" width="2.31" height="2.31"/>
		</g>
		<g>
			<rect x="102.56" y="59.78" class="st3" width="2.31" height="2.31"/>
		</g>
		<g>
			<rect x="102.56" y="64.41" class="st3" width="2.31" height="2.31"/>
		</g>
		<g>
			<rect x="102.56" y="69.03" class="st3" width="2.31" height="2.31"/>
		</g>
	</g>
</g>
<g id="Layer_8" class="st0">
	<g class="st2">
		<g>
			<g>
				<path class="st3" d="M100.57,78.88h-2.55V54.64c0-3.52-2.86-6.38-6.38-6.38h-6.38v-2.55h6.38c4.92,0,8.93,4.01,8.93,8.93V78.88z
					"/>
			</g>
			<g>
				<path class="st3" d="M46.98,78.88h-2.55V54.64c0-4.92,4.01-8.93,8.93-8.93h6.38v2.55h-6.38c-3.52,0-6.38,2.86-6.38,6.38V78.88z"
					/>
			</g>
			<g>
				<rect x="62.29" y="101.84" class="st3" width="20.41" height="2.55"/>
			</g>
			<g>
				<g>
					<rect x="71.22" y="78.88" class="st3" width="2.55" height="2.55"/>
				</g>
				<g>
					<rect x="66.12" y="78.88" class="st3" width="2.55" height="2.55"/>
				</g>
				<g>
					<rect x="76.33" y="78.88" class="st3" width="2.55" height="2.55"/>
				</g>
			</g>
			<g>
				<g>
					<path class="st3" d="M72.5,53.36c-4.36,0-7.66-4.11-7.66-9.57c0-3.86,0.87-8.29,7.66-8.29c6.79,0,7.66,4.43,7.66,8.29
						C80.16,49.25,76.86,53.36,72.5,53.36z M72.5,38.05c-3.86,0-5.1,1.4-5.1,5.74c0,3.4,1.79,7.02,5.1,7.02
						c3.31,0,5.1-3.62,5.1-7.02C77.6,39.45,76.36,38.05,72.5,38.05z"/>
				</g>
				<g>
					<path class="st3" d="M82.71,63.57H62.29c-2.07,0-3.83-2.34-3.83-5.1v-3.29l9.57-5.47l1.27,2.22l-8.29,4.74v1.81
						c0,1.56,0.9,2.55,1.28,2.55h20.41c0.38,0,1.28-0.99,1.28-2.55v-1.81l-8.29-4.74l1.27-2.22l9.57,5.47v3.29
						C86.53,61.23,84.78,63.57,82.71,63.57z"/>
				</g>
			</g>
			<g>
				<g>
					<path class="st3" d="M45.71,99.29c-4.36,0-7.66-4.11-7.66-9.57c0-3.86,0.87-8.29,7.66-8.29c6.79,0,7.66,4.43,7.66,8.29
						C53.36,95.18,50.07,99.29,45.71,99.29z M45.71,83.98c-3.86,0-5.1,1.4-5.1,5.74c0,3.4,1.79,7.02,5.1,7.02
						c3.31,0,5.1-3.62,5.1-7.02C50.81,85.38,49.57,83.98,45.71,83.98z"/>
				</g>
				<g>
					<path class="st3" d="M55.91,109.5H35.5c-2.07,0-3.83-2.34-3.83-5.1v-3.29l9.57-5.47l1.27,2.22l-8.29,4.74v1.81
						c0,1.56,0.9,2.55,1.28,2.55h20.41c0.38,0,1.28-0.99,1.28-2.55v-1.81l-8.29-4.74l1.27-2.22l9.57,5.47v3.29
						C59.74,107.16,57.99,109.5,55.91,109.5z"/>
				</g>
			</g>
			<g>
				<g>
					<path class="st3" d="M99.29,99.29c-4.36,0-7.66-4.11-7.66-9.57c0-3.86,0.87-8.29,7.66-8.29c6.79,0,7.66,4.43,7.66,8.29
						C106.95,95.18,103.66,99.29,99.29,99.29z M99.29,83.98c-3.86,0-5.1,1.4-5.1,5.74c0,3.4,1.79,7.02,5.1,7.02
						c3.31,0,5.1-3.62,5.1-7.02C104.4,85.38,103.16,83.98,99.29,83.98z"/>
				</g>
				<g>
					<path class="st3" d="M109.5,109.5H89.09c-2.07,0-3.83-2.34-3.83-5.1v-3.29l9.57-5.47l1.27,2.22l-8.29,4.74v1.81
						c0,1.56,0.9,2.55,1.28,2.55h20.41c0.38,0,1.28-0.99,1.28-2.55v-1.81l-8.29-4.74l1.27-2.22l9.57,5.47v3.29
						C113.33,107.16,111.57,109.5,109.5,109.5z"/>
				</g>
			</g>
		</g>
	</g>
</g>
<g id="Layer_9">
	<g>
		<g>
			<g>
				<g>
					<path class="st3" d="M102.38,73.92c-4.87,0-8.54-4.59-8.54-10.67c0-4.31,0.97-9.25,8.54-9.25c7.57,0,8.54,4.94,8.54,9.25
						C110.92,69.33,107.25,73.92,102.38,73.92z M102.38,56.85c-4.31,0-5.69,1.56-5.69,6.4c0,3.79,2,7.83,5.69,7.83
						c3.7,0,5.69-4.03,5.69-7.83C108.08,58.4,106.69,56.85,102.38,56.85z"/>
				</g>
				<g>
					
						<rect x="90.41" y="71.79" transform="matrix(0.8574 -0.5146 0.5146 0.8574 -24.1938 59.099)" class="st3" width="8.3" height="2.85"/>
				</g>
				<g>
					<path class="st3" d="M113.77,85.31h-8.54v-2.85h8.54c0.42,0,1.42-1.1,1.42-2.85v-2.02l-9.24-5.28l1.41-2.47l10.68,6.1v3.67
						C118.04,82.7,116.08,85.31,113.77,85.31z"/>
				</g>
			</g>
			<g>
				<g>
					<path class="st3" d="M42.62,73.92c-4.87,0-8.54-4.59-8.54-10.67c0-4.31,0.97-9.25,8.54-9.25c7.57,0,8.54,4.94,8.54,9.25
						C51.15,69.33,47.48,73.92,42.62,73.92z M42.62,56.85c-4.31,0-5.69,1.56-5.69,6.4c0,3.79,2,7.83,5.69,7.83
						c3.7,0,5.69-4.03,5.69-7.83C48.31,58.4,46.92,56.85,42.62,56.85z"/>
				</g>
				<g>
					
						<rect x="49.02" y="69.06" transform="matrix(0.5145 -0.8575 0.8575 0.5145 -38.2884 78.7984)" class="st3" width="2.85" height="8.3"/>
				</g>
				<g>
					<path class="st3" d="M39.77,85.31h-8.54c-2.31,0-4.27-2.61-4.27-5.69v-3.67l10.68-6.1l1.41,2.47l-9.24,5.28v2.02
						c0,1.74,1,2.85,1.42,2.85h8.54V85.31z"/>
				</g>
			</g>
			<g>
				<g>
					<g>
						<path class="st4" d="M82.46,78.19"/>
					</g>
					<g>
						<path class="st3" d="M42.62,109.5h-2.85V96.69c0-11.4,6.33-13.8,13.02-16.35c2.48-0.94,5.04-1.92,7.62-3.39l1.41,2.47
							c-2.77,1.58-5.56,2.64-8.02,3.58c-6.74,2.56-11.19,4.25-11.19,13.69V109.5z"/>
					</g>
					<g>
						<path class="st3" d="M105.23,109.5h-2.85V96.69c0-9.44-4.45-11.13-11.19-13.69c-2.46-0.94-5.25-2-8.02-3.58l1.41-2.47
							c2.57,1.47,5.14,2.44,7.62,3.39c6.7,2.54,13.02,4.95,13.02,16.35V109.5z"/>
					</g>
					<g>
						<path class="st3" d="M78.47,85.62l-5.97-2.99l-5.97,2.99l-7.24-7.24l4-6.01l9.21,1.54l9.21-1.54l4,6.01L78.47,85.62z
							 M72.5,79.45l5.41,2.71l4.14-4.14l-1.69-2.53l-7.86,1.31l-7.86-1.31l-1.69,2.53l4.14,4.14L72.5,79.45z"/>
					</g>
					<g>
						<rect x="78.19" y="68.23" class="st3" width="2.85" height="5.69"/>
					</g>
					<g>
						<rect x="63.96" y="68.23" class="st3" width="2.85" height="5.69"/>
					</g>
					<g>
						<rect x="71.08" y="92.42" class="st3" width="2.85" height="2.85"/>
					</g>
					<g>
						<rect x="71.08" y="86.73" class="st3" width="2.85" height="2.85"/>
					</g>
					<g>
						<g>
							<path class="st3" d="M72.5,71.08c-0.19,0-4.64-0.02-7.75-1.57l-0.15-0.09c-0.2-0.13-4.82-3.32-6.31-13.79l-0.01-0.2v-5.69
								h2.85v5.59c1.23,8.42,4.55,11.33,5.01,11.69c2.51,1.2,6.34,1.22,6.38,1.22c0.04,0,3.87-0.02,6.37-1.22
								c0.44-0.36,3.79-3.28,5.01-11.69v-5.59h2.85l-0.01,5.89c-1.5,10.47-6.12,13.66-6.31,13.79l-0.15,0.09
								C77.14,71.06,72.69,71.08,72.5,71.08z"/>
						</g>
						<g>
							<path class="st3" d="M86.73,49.73h-2.85c0-7.87-3.51-11.38-11.38-11.38c-7.87,0-11.38,3.51-11.38,11.38h-2.85
								c0-9.44,4.79-14.23,14.23-14.23C81.94,35.5,86.73,40.29,86.73,49.73z"/>
						</g>
						<g>
							<polygon class="st3" points="79.68,54.14 65.45,48.44 60.33,51 59.06,48.46 65.32,45.33 79.55,51.02 84.67,48.46 85.94,51 
															"/>
						</g>
					</g>
				</g>
				<g>
					<rect x="51.15" y="98.12" class="st3" width="2.85" height="11.38"/>
				</g>
				<g>
					<rect x="91" y="98.12" class="st3" width="2.85" height="11.38"/>
				</g>
			</g>
		</g>
	</g>
</g>
</svg>
